<svg xmlns="http://www.w3.org/2000/svg" xmlns:xlink="http://www.w3.org/1999/xlink" aria-hidden="true" role="img"
    viewBox="0.0007322460296563804 -0.00128936767578125 81.70841979980469 100.01615905761719" width="60"
    height="73.44390721586389" class="image-svg-svg primary">
    <path d="M65.68 67.05a6.52 6.52 0 1 1-6.52 6.51 6.51 6.51 0 0 1 6.52-6.51z" fill="#fc0"></path>
    <path
        d="M53 .47l-.5.14a15.39 15.39 0 0 0-8 6 53.55 53.55 0 0 1 15.09 10.94C65.14 23.21 69.48 31 72.42 39a39.39 39.39 0 0 0-43.51-16.42l-.75.22a39.43 39.43 0 1 0 35.27 69.07c.52-.4-5.26-14.52-16.7-10.29-3 1.06-8.85 3.57-20.21-3C18 73.7 15.3 62.74 18.44 53.46a22.16 22.16 0 0 1 42.39 1.39A8.64 8.64 0 0 0 71.41 61c11.12-3 11.82-28.17 8.68-38.49C75.5 7.41 63.45-2.3 53 .47z"
        fill="#0077f0"></path>
    <path
        d="M51.51 57a13.16 13.16 0 0 1-9.31 16.11 13.18 13.18 0 0 1-16.13-9.31 13.17 13.17 0 0 1 9.31-16.13A13.17 13.17 0 0 1 51.51 57z"
        fill="#3eae31"></path>
</svg>